<?xml version="1.0" encoding="utf-8"?>
<!-- Generator: Adobe Illustrator 19.2.1, SVG Export Plug-In . SVG Version: 6.00 Build 0)  -->
<!DOCTYPE svg PUBLIC "-//W3C//DTD SVG 1.1//EN" "http://www.w3.org/Graphics/SVG/1.1/DTD/svg11.dtd">
<svg version="1.1" id="Layer_1" xmlns="http://www.w3.org/2000/svg" xmlns:xlink="http://www.w3.org/1999/xlink" x="0px" y="0px"
	 width="400px" height="400px" viewBox="0 0 400 400" style="enable-background:new 0 0 400 400;" xml:space="preserve">
<g>
	<g style="display:none;">
		
			<image style="display:inline;overflow:visible;opacity:5.000000e-002;" width="343" height="352" xlink:href="9BF999B.png"  transform="matrix(1 0 0 1 29.5797 30.9279)">
		</image>
		<path style="display:inline;fill:#03A9F4;" d="M313,308.9c28.2-28.9,45.7-68.3,45.7-111.8c0-88.2-71.8-160-160-160
			s-160,71.8-160,160s71.8,160,160,160c17.4,0,34.1-2.8,49.7-7.9l71.9,16.6L313,308.9z M99.1,197.1c0-54.9,44.7-99.6,99.6-99.6
			c54.9,0,99.6,44.7,99.6,99.6c0,54.9-44.7,99.6-99.6,99.6C143.8,296.7,99.1,252,99.1,197.1z"/>
	</g>
	<g>
		
			<image style="overflow:visible;opacity:5.000000e-002;" width="343" height="352" xlink:href="9BF9998.png"  transform="matrix(1 0 0 1 29.5797 30.9279)">
		</image>
		<path style="fill:#03A9F4;" d="M313,308.9c28.2-28.9,45.7-68.3,45.7-111.8c0-44.1-17.9-84.1-46.9-113.1c-29-29-69-46.9-113.1-46.9
			c-88.2,0-160,71.8-160,160s71.8,160,160,160c17.4,0,34.1-2.8,49.7-7.9l71.9,16.6L313,308.9z M99.1,197.1
			c0-54.9,44.7-99.6,99.6-99.6c54.9,0,99.6,44.7,99.6,99.6c0,54.9-44.7,99.6-99.6,99.6C143.8,296.7,99.1,252,99.1,197.1z"/>
	</g>
</g>
<path style="fill:#B3E5FC;" d="M38.8,197.1c0,44.1,17.9,84.1,46.9,113.1l42.6-42.6c-18-18-29.2-43-29.2-70.4
	c0-54.9,44.7-99.6,99.6-99.6c27.5,0,52.4,11.2,70.4,29.2L311.8,84c-29-29-69-46.9-113.1-46.9C110.5,37.1,38.8,108.9,38.8,197.1z"/>
</svg>
